<?xml version="1.0" encoding="UTF-8"?>
<svg version="1.1" xmlns="http://www.w3.org/2000/svg" width="749" height="299">
<path d="M0 0 C0.02529825 6.37206172 0.04284496 12.74411054 0.05493164 19.11621094 C0.05996891 21.28516117 0.06679891 23.454108 0.07543945 25.62304688 C0.08753151 28.73568563 0.09323428 31.8482796 0.09765625 34.9609375 C0.10281754 35.934935 0.10797882 36.9089325 0.11329651 37.91244507 C0.11340981 39.26361923 0.11340981 39.26361923 0.11352539 40.64208984 C0.115746 41.43706879 0.11796661 42.23204773 0.12025452 43.05111694 C0 45 0 45 -1 47 C-6.10347633 46.8840119 -9.16674844 45.4494986 -13.5 42.75 C-27.56174037 34.13208598 -45.00139 30.31433678 -61.30859375 33.68359375 C-64.01418738 34.60848462 -66.46676251 35.67722574 -69 37 C-70.16208984 37.58394531 -70.16208984 37.58394531 -71.34765625 38.1796875 C-83.18350033 45.04163484 -88.89983215 57.51547315 -93 70 C-93.37898437 71.14855469 -93.75796875 72.29710938 -94.1484375 73.48046875 C-99.61991503 92.01355618 -100.50214831 111.37524701 -100.39111328 130.57861328 C-100.37504089 133.8666348 -100.39107136 137.15342159 -100.41015625 140.44140625 C-100.4403665 170.3723886 -98.58094877 210.28377375 -77.31640625 233.8671875 C-70.87574962 239.84673476 -62.78994807 243.10375993 -54 243 C-45.62618955 242.37824788 -39.11737435 239.27645472 -33.28125 233.21484375 C-23.11262093 220.58187855 -20.30973399 204.13853409 -18.75 188.4375 C-18.66983643 187.63650879 -18.58967285 186.83551758 -18.50708008 186.01025391 C-17.82159189 178.01528019 -17.93253339 170.01665718 -18 162 C-19.94604126 161.96241577 -19.94604126 161.96241577 -21.93139648 161.92407227 C-26.72658856 161.83018248 -31.5216295 161.72991751 -36.31665039 161.62768555 C-38.39539057 161.58426666 -40.47416803 161.54259688 -42.55297852 161.50268555 C-45.53413145 161.44515079 -48.51509549 161.38140881 -51.49609375 161.31640625 C-52.43150497 161.29969376 -53.3669162 161.28298126 -54.33067322 161.26576233 C-55.19149002 161.24581711 -56.05230682 161.22587189 -56.93920898 161.20532227 C-57.70087875 161.18977798 -58.46254852 161.1742337 -59.24729919 161.15821838 C-61 161 -61 161 -62 160 C-62 146.47 -62 132.94 -62 119 C-34.61 118.67 -7.22 118.34 21 118 C20.98839844 108.98816406 20.97679687 99.97632812 20.96484375 90.69140625 C20.95908839 84.27606454 20.95396146 77.86072476 20.94974613 71.44538212 C20.94419424 63.1239827 20.93713435 54.80259326 20.92456055 46.48120117 C20.91461368 39.89520334 20.90814657 33.30921302 20.90591151 26.72320789 C20.9046044 23.23386929 20.90151858 19.74455216 20.89426994 16.25522041 C20.88625602 12.36618768 20.88600886 8.47717622 20.88647461 4.58813477 C20.88287933 3.42288773 20.87928406 2.25764069 20.87557983 1.05708313 C20.8769545 0.00393921 20.87832916 -1.04920471 20.87974548 -2.13426208 C20.87836279 -3.51556887 20.87836279 -3.51556887 20.87695217 -4.92478085 C21 -7 21 -7 22 -8 C24.43007436 -8.11633469 26.83211508 -8.16799128 29.26342773 -8.17700195 C30.02469971 -8.18357315 30.78597168 -8.19014435 31.5703125 -8.19691467 C34.10807391 -8.21673011 36.64577531 -8.22834107 39.18359375 -8.23828125 C40.05384752 -8.24235678 40.9241013 -8.2464323 41.82072639 -8.25063133 C46.44501638 -8.27154728 51.06927638 -8.28581344 55.69360352 -8.29516602 C60.42601418 -8.30611927 65.15793998 -8.34037145 69.89018154 -8.38033772 C73.56159703 -8.40678596 77.23290327 -8.41488349 80.90440559 -8.41844749 C82.64515443 -8.42325734 84.3859003 -8.43470658 86.12655449 -8.45348549 C109.91410479 -8.6937331 132.79951664 -3.26218846 150.61328125 13.4609375 C165.69122574 29.50130397 169.86097302 50.84054017 169.28515625 72.16015625 C168.54413797 87.88896691 163.64272592 101.57111399 154 114 C153.56300781 114.60199219 153.12601562 115.20398438 152.67578125 115.82421875 C147.23890047 122.82848859 139.31523891 128.12317406 132 133 C133.62791763 141.0254154 135.96467356 148.78823254 138.359375 156.61328125 C138.79085129 158.03214953 139.22201766 159.45111209 139.65289307 160.87016296 C140.78527285 164.59677463 141.92158712 168.32217462 143.05883789 172.04730225 C144.19505287 175.77110538 145.3279349 179.49592159 146.4609375 183.22070312 C146.90563654 184.68228244 147.35033867 186.14386082 147.79504395 187.60543823 C148.66523004 190.46568307 149.535246 193.32597959 150.40515137 196.18630981 C150.82413682 197.5638226 151.24312281 198.94133521 151.66210938 200.31884766 C151.86346245 200.98100847 152.06481552 201.64316929 152.2722702 202.32539558 C153.50296904 206.37121636 154.73949174 210.41521842 155.97851562 214.45849609 C156.53273453 216.27826476 157.08678724 218.09808405 157.640625 219.91796875 C157.88746033 220.71745438 158.13429565 221.51694 158.38861084 222.34065247 C159.29576386 225.33454718 160 227.8523254 160 231 C161.32 231 162.64 231 164 231 C164.16861259 229.91728758 164.16861259 229.91728758 164.34063148 228.81270218 C165.54355226 221.31956323 167.05147643 213.94357283 168.75537109 206.54980469 C169.02626619 205.36130322 169.29716129 204.17280176 169.57626534 202.9482851 C170.31685901 199.70216244 171.06054373 196.45677776 171.80560112 193.21167874 C172.60246436 189.73729177 173.39517403 186.26195712 174.18835449 182.78672791 C175.5437474 176.85066844 176.90157045 170.91516948 178.26116943 164.98007202 C180.37937464 155.73331228 182.49309641 146.48553105 184.60595703 137.23754883 C185.31281735 134.1438099 186.01970125 131.05007635 186.72659302 127.9563446 C186.90130737 127.19168139 187.07602172 126.42701817 187.25603044 125.63918334 C188.49117737 120.23364031 189.72701706 114.82825594 190.96310425 109.42292786 C195.14652429 91.12776051 199.31724258 72.82978488 203.46875 54.52734375 C203.7079076 53.47323177 203.9470652 52.4191198 204.19347 51.33306503 C206.17913489 42.58084295 208.16405604 33.82845289 210.14569092 25.07531738 C211.12361688 20.75571051 212.10284343 16.43640057 213.08305359 12.11731148 C213.43391333 10.56997915 213.78422153 9.02252164 214.13392639 7.4749279 C214.60208802 5.40314101 215.07205696 3.33177232 215.54248047 1.26049805 C215.80205536 0.11405319 216.06163025 -1.03239166 216.32907104 -2.21357727 C217 -5 217 -5 218 -8 C233.51 -8 249.02 -8 265 -8 C268.37496344 0.99990251 268.37496344 0.99990251 269.17959595 4.55644226 C269.36630356 5.36889153 269.55301117 6.18134079 269.74537659 7.01840973 C270.03504555 8.31773563 270.03504555 8.31773563 270.33056641 9.64331055 C270.54493851 10.58345253 270.75931061 11.52359451 270.98017883 12.49222565 C271.69259338 15.62254907 272.39704176 18.7546101 273.1015625 21.88671875 C273.61174018 24.13539593 274.12244479 26.38395362 274.63363647 28.63240051 C275.72989234 33.458663 276.82277636 38.28567199 277.91308594 43.11328125 C279.63345691 50.72934915 281.36274402 58.34337445 283.09375 65.95703125 C283.68490887 68.55782323 284.27604667 71.15861998 284.86712646 73.75942993 C285.01463403 74.40846649 285.1621416 75.05750304 285.3141191 75.72620738 C286.83159394 82.40388176 288.3467314 89.08208598 289.86164045 95.76034284 C295.06601694 118.70290095 300.27197176 141.64508586 305.50908089 164.58019924 C307.16447465 171.83092026 308.8131399 179.08312723 310.45675087 186.33652782 C311.47645056 190.82956682 312.50223505 195.32119961 313.52980423 199.81244469 C314.00581951 201.89861294 314.47931219 203.98535857 314.95014572 206.07270241 C315.59025659 208.90877572 316.23925889 211.74266596 316.890625 214.57617188 C317.07641428 215.40936793 317.26220356 216.24256399 317.45362282 217.10100842 C318.39127519 221.47677098 318.39127519 221.47677098 321 225 C323.12782963 222.87217037 322.15501642 218.01770096 322.15821838 215.0721283 C322.16562535 213.64977044 322.16562535 213.64977044 322.17318195 212.19867808 C322.18863863 208.99565379 322.19693956 205.79264967 322.20532227 202.58959961 C322.21489438 200.30376506 322.22490405 198.0179323 322.23532104 195.73210144 C322.26244845 189.50509795 322.28341545 183.27808682 322.30332303 177.05105662 C322.32513443 170.55140321 322.35254674 164.05177356 322.37937927 157.55213928 C322.4236841 146.63592548 322.46450818 135.71970369 322.50268555 124.8034668 C322.5420249 113.55768889 322.58345877 102.3119219 322.62768555 91.06616211 C322.63043505 90.36636941 322.63318456 89.6665767 322.63601738 88.94557816 C322.65995086 82.85877315 322.6840435 76.77196877 322.70815182 70.68516445 C322.81182925 44.4567973 322.90505007 18.22840355 323 -8 C365.9 -8 408.8 -8 453 -8 C453 5.86 453 19.72 453 34 C451.2227831 35.7772169 448.847528 35.11988099 446.48136902 35.12442017 C445.29454277 35.11902725 445.29454277 35.11902725 444.08374023 35.11352539 C443.25454071 35.11367142 442.42534119 35.11381744 441.5710144 35.1139679 C438.81684802 35.11326851 436.06274839 35.10547493 433.30859375 35.09765625 C431.40430234 35.09579216 429.50001045 35.09436822 427.59571838 35.09336853 C422.57332037 35.08954263 417.55095108 35.07971173 412.52856445 35.06866455 C406.50804488 35.05665775 400.48751572 35.05204853 394.46698761 35.04621124 C385.31130507 35.03650001 376.15568561 35.01734396 367 35 C367 53.15 367 71.3 367 90 C371.96933594 89.98839844 376.93867187 89.97679688 382.05859375 89.96484375 C385.19856901 89.95973686 388.33853917 89.95492308 391.47851562 89.95117188 C396.46721453 89.94518394 401.45589517 89.93808497 406.44458008 89.92456055 C410.46457686 89.91372992 414.48455405 89.90772279 418.50456429 89.90512276 C420.04162975 89.90326882 421.57869409 89.89964881 423.11575127 89.89426994 C425.26135487 89.88705716 427.40687655 89.88600916 429.55249023 89.88647461 C430.77604721 89.884254 431.99960419 89.88203339 433.26023865 89.87974548 C436 90 436 90 437 91 C437.1011692 94.09081465 437.13968558 97.15882555 437.1328125 100.25 C437.13376923 101.17844727 437.13472595 102.10689453 437.13571167 103.06347656 C437.13639355 105.03059965 437.13453872 106.99772496 437.13037109 108.96484375 C437.12502295 111.98703026 437.13031582 115.00906815 437.13671875 118.03125 C437.13605797 119.93750033 437.13477681 121.84375057 437.1328125 123.75 C437.13483673 124.66040039 437.13686096 125.57080078 437.13894653 126.50878906 C437.11494969 132.88505031 437.11494969 132.88505031 436 134 C433.85256451 134.09425595 431.70198974 134.11742648 429.55249023 134.11352539 C428.54277664 134.11374443 428.54277664 134.11374443 427.51266479 134.1139679 C425.27794216 134.11326878 423.0433019 134.10547652 420.80859375 134.09765625 C419.26302638 134.09579206 417.71745843 134.09436816 416.17189026 134.09336853 C412.09642923 134.0895434 408.02100363 134.07971317 403.94555664 134.06866455 C399.78988118 134.05845032 395.63420001 134.05387089 391.47851562 134.04882812 C383.31899413 134.03809089 375.15950147 134.02101454 367 134 C366.99576806 134.76698432 366.99153612 135.53396864 366.98717594 136.32419491 C366.88401332 154.95941572 366.77539746 173.59459738 366.66066074 192.22975063 C366.60530812 201.24145123 366.55182283 210.25315578 366.50268555 219.26489258 C366.45986863 227.11662036 366.41359704 234.96831876 366.36312145 242.82000118 C366.33650036 246.98001726 366.31164687 251.14002744 366.29092598 255.30007744 C366.27139094 259.21111269 366.24725677 263.12209189 366.21950912 267.03307724 C366.21012202 268.47266056 366.20245276 269.91225619 366.19658089 271.35185814 C366.18834788 273.30897298 366.17348225 275.26605664 366.15821838 277.22312927 C366.14853956 278.86991244 366.14853956 278.86991244 366.1386652 280.54996395 C366 283 366 283 365 284 C362.56603981 284.09498646 360.16057048 284.12558417 357.72631836 284.11352539 C356.96539383 284.11367142 356.2044693 284.11381744 355.42048645 284.1139679 C352.89357702 284.11326862 350.36674038 284.10547555 347.83984375 284.09765625 C346.0924941 284.09579212 344.34514393 284.0943682 342.59779358 284.09336853 C337.98968066 284.08954293 333.38159905 284.07971229 328.77349854 284.06866455 C324.07491479 284.05845134 319.37632601 284.0538711 314.67773438 284.04882812 C305.45180913 284.03809005 296.22590716 284.02101313 287 284 C284.65053009 277.46361553 282.98034005 270.92150822 281.5546875 264.12890625 C281.2316716 262.62359596 281.2316716 262.62359596 280.90213013 261.08787537 C280.22160929 257.91375537 279.54782037 254.7382604 278.875 251.5625 C278.19419295 248.36193813 277.51190875 245.16171115 276.82644653 241.96214294 C276.40172296 239.97843954 275.97981833 237.99413008 275.56100464 236.00917053 C275.37055573 235.11741623 275.18010681 234.22566193 274.98388672 233.30688477 C274.73431717 232.12848778 274.73431717 232.12848778 274.47970581 230.92628479 C274.05790386 228.9342908 274.05790386 228.9342908 273 227 C252.21 227 231.42 227 210 227 C208.74185085 230.77444746 207.67711542 234.1045616 206.88671875 237.93212891 C206.59631714 239.32354599 206.59631714 239.32354599 206.30004883 240.74307251 C206.09790771 241.72762421 205.8957666 242.7121759 205.6875 243.7265625 C205.24749394 245.83074968 204.80738674 247.93491572 204.3671875 250.0390625 C203.68071732 253.34140756 202.99605043 256.64411298 202.31347656 259.94726562 C201.65120842 263.14553617 200.98221486 266.34234434 200.3125 269.5390625 C200.00928833 271.02196274 200.00928833 271.02196274 199.69995117 272.53482056 C199.5063501 273.45612762 199.31274902 274.37743469 199.11328125 275.32666016 C198.94610596 276.13463043 198.77893066 276.94260071 198.60668945 277.77505493 C198 280 198 280 196 284 C173.89 284 151.78 284 129 284 C127.25409343 279.34424915 125.57858194 274.84947502 124.125 270.12475586 C123.78547302 269.02513519 123.44594604 267.92551453 123.09613037 266.79257202 C122.73440735 265.61192169 122.37268433 264.43127136 122 263.21484375 C121.60761744 261.9400197 121.2150547 260.66525111 120.82232666 259.39053345 C119.76461907 255.95464179 118.71030271 252.51771877 117.65693665 249.08049393 C116.99877449 246.93350226 116.33978486 244.78676626 115.68054199 242.6401062 C109.0336015 220.99347406 102.43528699 199.33207217 95.88330078 177.65651321 C95.24939524 175.56050036 94.61455297 173.4647732 93.97949219 171.36911011 C92.80051867 167.47759821 91.62644696 163.5846259 90.453125 159.69140625 C90.10098938 158.52993073 89.74885376 157.3684552 89.38604736 156.17178345 C89.06948181 155.11808563 88.75291626 154.06438782 88.42675781 152.97875977 C88.14954895 152.06006607 87.87234009 151.14137238 87.58673096 150.19483948 C87 148 87 148 87 146 C79.74 146 72.48 146 65 146 C65.00222061 147.71412582 65.00444122 149.42825165 65.00672913 151.19432068 C65.02695603 167.30818938 65.04202992 183.42205502 65.05181217 199.53593349 C65.05697528 207.82124274 65.06401827 216.10654253 65.07543945 224.3918457 C65.08538583 231.61069608 65.09185332 238.82953961 65.09408849 246.04839665 C65.09539568 249.87308255 65.09848203 253.69774887 65.10573006 257.52242851 C65.11248954 261.11825787 65.11461711 264.71405946 65.11310768 268.30989456 C65.11351636 270.26706037 65.11891193 272.22422312 65.12442017 274.18138123 C65.1230455 275.335495 65.12167084 276.48960876 65.12025452 277.67869568 C65.12163721 279.19274065 65.12163721 279.19274065 65.12304783 280.7373724 C65 283 65 283 64 284 C61.16245694 284.13835623 58.35101945 284.21317408 55.51171875 284.23828125 C54.65697464 284.246353 53.80223053 284.25442474 52.92158508 284.26274109 C51.10830728 284.27659884 49.29500321 284.2873134 47.48168945 284.29516602 C44.70929368 284.3123648 41.93809452 284.35623274 39.16601562 284.40039062 C37.40625879 284.41051839 35.64649179 284.41903423 33.88671875 284.42578125 C32.64277596 284.45204338 32.64277596 284.45204338 31.373703 284.47883606 C30.59642349 284.47591049 29.81914398 284.47298492 29.01831055 284.4699707 C27.99691231 284.47877007 27.99691231 284.47877007 26.95487976 284.48774719 C24.00706471 283.75226026 22.82880208 282.38582068 21 280 C20.48101807 277.3550415 20.48101807 277.3550415 20.45410156 274.31347656 C20.43438293 273.17259583 20.41466431 272.03171509 20.39434814 270.85626221 C20.39250519 269.01702179 20.39250519 269.01702179 20.390625 267.140625 C20.37408875 265.88111023 20.35755249 264.62159546 20.34051514 263.32391357 C20.30017166 259.98317327 20.27685176 256.64319576 20.26177979 253.30230713 C20.24219495 249.89018257 20.20022668 246.47834085 20.16015625 243.06640625 C20.08614953 236.3776731 20.03457908 229.68904687 20 223 C19.34 223 18.68 223 18 223 C17.82460693 223.56283691 17.64921387 224.12567383 17.46850586 224.70556641 C12.48682123 240.54303091 7.51235806 255.57534187 -4 268 C-4.64195312 268.69609375 -5.28390625 269.3921875 -5.9453125 270.109375 C-19.9850632 283.88221029 -38.73357846 287.54786869 -57.73144531 287.41796875 C-78.7943348 286.83672309 -96.46078669 279.22523403 -111 264 C-114.29191467 260.48245322 -117.32621767 257.0106735 -120 253 C-120.66 253 -121.32 253 -122 253 C-121.49777571 259.90558405 -120.04111981 266.37979912 -118.28417969 273.05834961 C-117.35029557 276.76065327 -116.7868209 279.36289491 -118 283 C-119 284 -119 284 -120.75270081 284.12025452 C-121.89520546 284.1169236 -121.89520546 284.1169236 -123.06079102 284.11352539 C-123.92160782 284.11344986 -124.78242462 284.11337433 -125.66932678 284.11329651 C-126.60473801 284.10813522 -127.54014923 284.10297394 -128.50390625 284.09765625 C-129.45692123 284.0962413 -130.40993622 284.09482635 -131.39183044 284.09336853 C-134.44875165 284.08775152 -137.50560077 284.07519616 -140.5625 284.0625 C-142.62955624 284.05748719 -144.69661362 284.05292391 -146.76367188 284.04882812 C-151.84247588 284.03777656 -156.9212257 284.02050055 -162 284 C-163.43942794 280.61385486 -164.46267369 277.36475972 -165.22094727 273.76660156 C-165.43779678 272.74914856 -165.6546463 271.73169556 -165.87806702 270.68341064 C-166.10521896 269.59679138 -166.33237091 268.51017212 -166.56640625 267.390625 C-166.80536118 266.26807312 -167.0443161 265.14552124 -167.29051208 263.98895264 C-168.0520661 260.41018261 -168.80786839 256.83023565 -169.5625 253.25 C-170.32095752 249.65553962 -171.08073131 246.06138777 -171.84519958 242.46820068 C-172.32068295 240.23316227 -172.79265877 237.99737437 -173.26087952 235.76080322 C-173.47457687 234.75595886 -173.68827423 233.7511145 -173.90844727 232.71582031 C-174.09560806 231.82711243 -174.28276886 230.93840454 -174.4756012 230.02276611 C-174.8128841 228.01810625 -174.8128841 228.01810625 -176 227 C-177.96369153 226.9059933 -179.93079199 226.88256619 -181.89672852 226.88647461 C-183.78857628 226.88658791 -183.78857628 226.88658791 -185.71864319 226.88670349 C-187.10539794 226.8918109 -188.49215229 226.89702691 -189.87890625 226.90234375 C-191.28995209 226.90420799 -192.70099857 226.90563186 -194.11204529 226.90663147 C-197.83240535 226.91045621 -201.5527266 226.9202861 -205.27307129 226.93133545 C-209.06680781 226.94155052 -212.86055058 226.94612929 -216.65429688 226.95117188 C-224.10288231 226.96190842 -231.55143572 226.9789843 -239 227 C-240.89001639 234.38933223 -242.64790455 241.78477837 -244.19140625 249.25390625 C-244.58243331 251.1152867 -244.97371641 252.97661337 -245.36523438 254.83789062 C-245.96922154 257.72086008 -246.57114257 260.60421616 -247.16870117 263.48852539 C-247.75380477 266.30740241 -248.34697641 269.12448339 -248.94140625 271.94140625 C-249.11853653 272.80697647 -249.29566681 273.67254669 -249.47816467 274.56434631 C-249.6485173 275.366259 -249.81886993 276.16817169 -249.99438477 276.99438477 C-250.14077896 277.69765396 -250.28717316 278.40092316 -250.43800354 279.12550354 C-251 281 -251 281 -253 284 C-254.82826233 284.36749268 -254.82826233 284.36749268 -257.06665039 284.35644531 C-258.32288963 284.36094696 -258.32288963 284.36094696 -259.60450745 284.36553955 C-260.50974655 284.35319275 -261.41498566 284.34084595 -262.34765625 284.328125 C-263.27468857 284.32625183 -264.20172089 284.32437866 -265.15684509 284.32244873 C-267.11802767 284.31572023 -269.07919665 284.30178998 -271.0402832 284.28125 C-274.05367398 284.25009126 -277.06654224 284.24028052 -280.08007812 284.234375 C-281.98177726 284.2252056 -283.88347104 284.21483003 -285.78515625 284.203125 C-286.69241959 284.19887512 -287.59968292 284.19462524 -288.53443909 284.19024658 C-294.88285629 284.11714371 -294.88285629 284.11714371 -296 283 C-295.85954735 275.81892995 -294.2234307 268.80591106 -292.60864258 261.84228516 C-292.36347208 260.76272175 -292.11830158 259.68315834 -291.86570168 258.57088089 C-291.04770349 254.97560916 -290.22109598 251.38237358 -289.39453125 247.7890625 C-288.80447384 245.2032575 -288.21491375 242.61734388 -287.62599182 240.03128052 C-286.35916441 234.472723 -285.08803279 228.91516458 -283.81390381 223.35827637 C-281.79739179 214.56341269 -279.78896387 205.76671359 -277.78173828 196.96972656 C-277.09374919 193.95494231 -276.40568967 190.94017413 -275.71759033 187.92541504 C-275.4597348 186.79565577 -275.4597348 186.79565577 -275.19667006 185.64307308 C-273.96113812 180.23036081 -272.72432969 174.8179411 -271.48699951 169.40563965 C-266.63768814 148.19232142 -261.80927571 126.97433432 -256.99604487 105.75280142 C-256.13084688 101.93836089 -255.26536455 98.12398488 -254.3999176 94.30960083 C-250.6491249 77.77768808 -250.6491249 77.77768808 -246.90043885 61.24529755 C-245.33705376 54.34840806 -243.77262732 47.45175674 -242.20606619 40.55558789 C-241.49160405 37.4102549 -240.77792132 34.26474871 -240.06546211 31.11896133 C-231.55799831 -6.44200169 -231.55799831 -6.44200169 -230 -8 C-228.52645652 -8.09304018 -227.04849409 -8.11746265 -225.57202148 -8.11352539 C-224.63112167 -8.11344986 -223.69022186 -8.11337433 -222.72080994 -8.11329651 C-221.69790359 -8.10813522 -220.67499725 -8.10297394 -219.62109375 -8.09765625 C-218.57929459 -8.0962413 -217.53749542 -8.09482635 -216.46412659 -8.09336853 C-213.12188906 -8.0877508 -209.77971743 -8.0751953 -206.4375 -8.0625 C-204.17773534 -8.05748728 -201.91796963 -8.05292398 -199.65820312 -8.04882812 C-194.10544609 -8.03777561 -188.55272775 -8.02102024 -183 -8 C-176.29754955 19.04747205 -170.11888097 46.20992864 -163.96362305 73.38623047 C-161.90290703 82.4834587 -159.83901 91.579964 -157.77330971 100.67606163 C-157.06145891 103.81304874 -156.35133596 106.9504232 -155.6414032 110.08784485 C-153.52642397 119.4181228 -151.40064048 128.73815786 -149 138 C-148.34 138 -147.68 138 -147 138 C-146.95512451 137.06019287 -146.91024902 136.12038574 -146.86401367 135.15209961 C-144.68890187 90.39796193 -142.08157572 40.33720433 -108 7 C-79.5164305 -17.7283724 -32.20858992 -18.80413617 0 0 Z M65 34 C64.90051807 36.11137901 64.87200362 38.22612286 64.87060547 40.33984375 C64.86885315 41.00162628 64.86710083 41.66340881 64.86529541 42.34524536 C64.86087783 44.5426899 64.86381453 46.74005458 64.8671875 48.9375 C64.86651443 50.45825211 64.86554439 51.97900412 64.86428833 53.49975586 C64.86281149 56.69092836 64.86496548 59.88207292 64.86962891 63.07324219 C64.8753262 67.1726453 64.87204712 71.27198296 64.86605644 75.37138367 C64.86245046 78.51282244 64.86358958 81.65424558 64.86618423 84.79568481 C64.8668534 86.30762744 64.86602543 87.81957146 64.86370468 89.33151245 C64.86117755 91.44109887 64.86501956 93.55057787 64.87060547 95.66015625 C64.87140106 96.86293213 64.87219666 98.06570801 64.87301636 99.30493164 C64.69312407 101.91747185 64.69312407 101.91747185 66 103 C70.11099911 103.24454794 74.2258442 103.22863397 78.34350586 103.24023438 C80.39805553 103.24981605 82.45155022 103.28076173 84.50585938 103.3125 C96.70683628 103.36027671 106.58850842 101.51726254 115.91015625 93.3203125 C123.05133157 86.01235814 125.19470162 77.40054968 125.4375 67.375 C125.0847498 56.57202515 122.67911462 48.8184534 115 41 C105.25120071 32.57485234 92.02730326 32.55288769 79.8125 32.75 C78.47852126 32.75649375 77.14453567 32.7617087 75.81054688 32.765625 C70.02871687 32.25241563 70.02871687 32.25241563 65 34 Z M-209 80 C-209.21884354 81.02126984 -209.43768707 82.04253967 -209.66316223 83.09475708 C-223.91572571 149.60671997 -223.91572571 149.60671997 -224.46891308 152.18679619 C-224.82270352 153.83878122 -225.17571386 155.49093354 -225.52787495 157.14326668 C-226.30996339 160.80888546 -227.10179795 164.47128729 -227.92953491 168.12689209 C-228.20504181 169.35845032 -228.48054871 170.59000854 -228.7644043 171.85888672 C-229.00466843 172.91050995 -229.24493256 173.96213318 -229.49247742 175.04562378 C-230.1693067 178.48595473 -230.1693067 178.48595473 -230 184 C-215.15 184 -200.3 184 -185 184 C-183.95951267 180.87853801 -184.00536954 180.02067616 -184.67025757 176.93896484 C-184.84413498 176.11458923 -185.01801239 175.29021362 -185.19715881 174.44085693 C-185.39554855 173.53998352 -185.59393829 172.63911011 -185.79833984 171.7109375 C-186.00141251 170.75946838 -186.20448517 169.80799927 -186.41371155 168.82769775 C-187.08858483 165.67512685 -187.77464912 162.52510393 -188.4609375 159.375 C-188.93143197 157.18942711 -189.40128245 155.00371549 -189.87051392 152.81787109 C-190.85622659 148.23366802 -191.84698323 143.65059596 -192.84179688 139.06835938 C-194.1183726 133.18823862 -195.38673504 127.30638804 -196.65187645 121.42379761 C-197.85650053 115.82364503 -199.06462143 110.22424901 -200.2734375 104.625 C-200.50481792 103.55239929 -200.73619835 102.47979858 -200.9745903 101.37469482 C-201.62878646 98.34573583 -202.2853958 95.31731119 -202.94287109 92.2890625 C-203.13721237 91.38818909 -203.33155365 90.48731567 -203.53178406 89.55914307 C-203.71130112 88.73476746 -203.89081818 87.91039185 -204.07577515 87.06103516 C-204.23101339 86.34501129 -204.38625164 85.62898743 -204.54619408 84.89126587 C-205.02046546 82.7950243 -205.02046546 82.7950243 -206 80 C-206.99 80 -207.98 80 -209 80 Z M240 80 C237.29786462 91.9921747 234.64232885 103.99452067 232 116 C231.71763489 117.28217407 231.43526978 118.56434814 231.14434814 119.88537598 C229.385462 127.87630929 227.63480609 135.86899014 225.89612961 143.8643465 C225.08564695 147.59093547 224.27247973 151.31689114 223.45281982 155.04147339 C222.66857429 158.60594267 221.89197331 162.17199476 221.12101555 165.73936081 C220.83121425 167.07404028 220.53869215 168.40813211 220.24334908 169.74159622 C219.83648968 171.58076928 219.44030935 173.42229507 219.04467773 175.26391602 C218.81787827 176.30338882 218.5910788 177.34286163 218.35740662 178.41383362 C217.79024987 181.10928897 217.79024987 181.10928897 219 184 C233.85 184 248.7 184 264 184 C264.05786794 178.14869224 264.05786794 178.14869224 263.24745178 172.65449524 C263.08061386 171.8681369 262.91377594 171.08177856 262.74188232 170.27159119 C262.5564386 169.43342361 262.37099487 168.59525604 262.17993164 167.73168945 C261.98646652 166.83001038 261.7930014 165.9283313 261.59367371 164.99932861 C260.95601829 162.03578652 260.30818614 159.0745705 259.66015625 156.11328125 C259.21353687 154.04791727 258.76753668 151.9824193 258.3221283 149.91679382 C257.15017559 144.49020331 255.96948077 139.06555056 254.78704834 133.64123535 C253.58486776 128.11815184 252.3916115 122.59314129 251.19726562 117.06835938 C249.45231212 109.00467683 247.70502211 100.94150779 245.94946289 92.88012695 C245.7660434 92.03588669 245.5826239 91.19164642 245.39364624 90.32182312 C245.13915962 89.15497482 245.13915962 89.15497482 244.87953186 87.96455383 C244.73296678 87.29151875 244.58640169 86.61848368 244.43539524 85.9250536 C243.98684727 83.9418466 243.50051375 81.97067469 243 80 C242.01 80 241.02 80 240 80 Z " fill="#231E20" transform="translate(296,12)"/>
</svg>
