<?xml version="1.0" encoding="UTF-8" standalone="no"?>
<!DOCTYPE svg PUBLIC "-//W3C//DTD SVG 1.1//EN" "http://www.w3.org/Graphics/SVG/1.1/DTD/svg11.dtd">
<svg width="100%" height="100%" viewBox="0 0 48 48" version="1.1" xmlns="http://www.w3.org/2000/svg" xmlns:xlink="http://www.w3.org/1999/xlink" xml:space="preserve" xmlns:serif="http://www.serif.com/" style="fill-rule:evenodd;clip-rule:evenodd;stroke-linejoin:round;stroke-miterlimit:2;">
    <rect x="0" y="0" width="48" height="48"/>
    <g transform="matrix(1.30822,0,0,1.30822,122.804,45.8513)">
        <path d="M-69.071,-16.753L-72.832,-33.209C-72.864,-33.349 -72.989,-33.448 -73.132,-33.448L-77.961,-33.448C-78.104,-33.448 -78.229,-33.349 -78.26,-33.209L-85.732,-0.333C-85.776,-0.141 -85.63,0.042 -85.432,0.042L-81.048,0.042C-80.903,0.042 -80.778,-0.059 -80.747,-0.201L-79.436,-6.351C-79.406,-6.493 -79.281,-6.594 -79.135,-6.594L-72.048,-6.594C-71.903,-6.594 -71.778,-6.493 -71.747,-6.352L-70.427,-0.201C-70.397,-0.059 -70.272,0.042 -70.127,0.042L-65.618,0.042C-65.42,0.042 -65.274,-0.141 -65.318,-0.334L-65.988,-3.266M-73.184,-11.278L-78.006,-11.278C-78.201,-11.278 -78.347,-11.458 -78.306,-11.649L-75.833,-23.263C-75.779,-23.514 -75.421,-23.515 -75.367,-23.263L-72.884,-11.649C-72.843,-11.458 -72.989,-11.278 -73.184,-11.278" style="fill:white;fill-rule:nonzero;"/>
    </g>
</svg>
