<?xml version="1.0" encoding="UTF-8" standalone="no"?>
<!DOCTYPE svg PUBLIC "-//W3C//DTD SVG 1.1//EN" "http://www.w3.org/Graphics/SVG/1.1/DTD/svg11.dtd">
<svg width="100%" height="100%" viewBox="0 0 359 143" version="1.1" xmlns="http://www.w3.org/2000/svg" xmlns:xlink="http://www.w3.org/1999/xlink" xml:space="preserve" xmlns:serif="http://www.serif.com/" style="fill-rule:evenodd;clip-rule:evenodd;stroke-linejoin:round;stroke-miterlimit:2;">
    <g id="Artboard1" transform="matrix(1,0,0,1,-195.236,-78.0792)">
        <rect x="195.236" y="78.079" width="358.529" height="142.842" style="fill:none;"/>
        <clipPath id="_clip1">
            <rect x="195.236" y="78.079" width="358.529" height="142.842"/>
        </clipPath>
        <g clip-path="url(#_clip1)">
            <g transform="matrix(4.16667,0,0,4.16667,552.721,219.262)">
                <path d="M0,-33.448L-14.282,-33.448C-14.452,-33.448 -14.589,-33.31 -14.589,-33.141L-14.589,-6.829C-14.589,-6.463 -15.115,-6.403 -15.197,-6.76L-21.242,-33.209C-21.274,-33.349 -21.398,-33.448 -21.542,-33.448L-26.37,-33.448C-26.514,-33.448 -26.638,-33.349 -26.67,-33.209L-32.831,-6.101C-32.901,-5.794 -33.333,-5.778 -33.425,-6.08L-36.75,-17.046C-36.79,-17.179 -36.735,-17.321 -36.617,-17.395C-34.287,-18.854 -32.394,-20.97 -32.394,-24.752C-32.394,-27.18 -33.127,-29.439 -34.584,-30.911C-36.251,-32.594 -38.735,-33.448 -41.969,-33.448L-48.943,-33.448C-49.113,-33.448 -49.251,-33.31 -49.251,-33.141L-49.251,-19.144C-49.251,-18.975 -49.388,-18.837 -49.558,-18.837L-58.566,-18.837C-58.736,-18.837 -58.874,-18.699 -58.874,-18.529L-58.874,-14.42C-58.874,-14.25 -58.736,-14.112 -58.566,-14.112L-53.992,-14.112C-53.823,-14.112 -53.685,-13.976 -53.684,-13.807C-53.648,-8.559 -54.635,-4.475 -58.137,-4.475C-62.966,-4.475 -63.487,-13.334 -63.487,-17.162C-63.487,-26.89 -60.414,-28.932 -57.522,-28.932C-55.182,-28.932 -53.79,-28.095 -52.342,-27.215C-52.139,-27.091 -51.879,-27.234 -51.875,-27.471C-51.854,-28.75 -51.786,-31.236 -51.768,-32.135C-51.764,-32.298 -51.847,-32.449 -51.985,-32.535C-52.772,-33.028 -55.009,-33.865 -57.971,-33.865C-62.722,-33.865 -68.399,-30.968 -68.462,-17.165L-68.464,-16.82C-68.465,-16.454 -68.989,-16.396 -69.071,-16.753L-72.832,-33.209C-72.864,-33.349 -72.989,-33.448 -73.132,-33.448L-77.961,-33.448C-78.104,-33.448 -78.229,-33.349 -78.26,-33.209L-85.732,-0.333C-85.776,-0.141 -85.63,0.042 -85.432,0.042L-81.048,0.042C-80.903,0.042 -80.778,-0.059 -80.747,-0.201L-79.436,-6.351C-79.406,-6.493 -79.281,-6.594 -79.135,-6.594L-72.048,-6.594C-71.903,-6.594 -71.778,-6.493 -71.747,-6.352L-70.427,-0.201C-70.397,-0.059 -70.272,0.042 -70.127,0.042L-65.618,0.042C-65.42,0.042 -65.274,-0.141 -65.318,-0.334L-65.988,-3.266C-66.064,-3.597 -65.624,-3.789 -65.435,-3.506C-65.069,-2.959 -64.66,-2.451 -64.206,-1.994C-62.613,-0.394 -60.415,0.417 -58.064,0.417C-52.436,0.417 -50.707,-3.534 -49.876,-6.789C-49.844,-6.913 -49.745,-7.016 -49.618,-7.033C-49.429,-7.057 -49.27,-6.911 -49.269,-6.729L-49.251,-0.53C-49.251,-0.214 -48.995,0.042 -48.679,0.042L-44.667,0.042C-44.497,0.042 -44.359,-0.095 -44.359,-0.265L-44.359,-15.554C-44.359,-15.724 -44.221,-15.861 -44.052,-15.861L-42.016,-15.861C-41.852,-15.861 -41.708,-15.754 -41.66,-15.598L-36.966,-0.176C-36.926,-0.046 -36.807,0.042 -36.672,0.042L-29.458,0.042C-29.313,0.042 -29.187,-0.059 -29.157,-0.201L-27.846,-6.351C-27.816,-6.493 -27.69,-6.594 -27.545,-6.594L-20.458,-6.594C-20.313,-6.594 -20.187,-6.493 -20.157,-6.352L-18.837,-0.201C-18.807,-0.059 -18.682,0.042 -18.537,0.042L-10.005,0.042C-9.836,0.042 -9.698,-0.095 -9.698,-0.265L-9.698,-16.914C-9.698,-17.083 -9.56,-17.221 -9.39,-17.221L-1.834,-17.221C-1.664,-17.221 -1.527,-17.359 -1.527,-17.529L-1.527,-21.795C-1.527,-21.965 -1.664,-22.103 -1.834,-22.103L-9.39,-22.103C-9.56,-22.103 -9.698,-22.24 -9.698,-22.41L-9.698,-28.259C-9.698,-28.429 -9.56,-28.566 -9.39,-28.566L0,-28.566C0.17,-28.566 0.307,-28.704 0.307,-28.874L0.307,-33.141C0.307,-33.31 0.17,-33.448 0,-33.448M-73.184,-11.278L-78.006,-11.278C-78.201,-11.278 -78.347,-11.458 -78.306,-11.649L-75.833,-23.263C-75.779,-23.514 -75.421,-23.515 -75.367,-23.263L-72.884,-11.649C-72.843,-11.458 -72.989,-11.278 -73.184,-11.278M-41.844,-20.586L-44.052,-20.586C-44.221,-20.586 -44.359,-20.724 -44.359,-20.893L-44.359,-28.499C-44.359,-28.669 -44.221,-28.807 -44.052,-28.807L-41.844,-28.807C-38.805,-28.807 -37.328,-27.349 -37.328,-24.759C-37.328,-22.159 -38.889,-20.586 -41.844,-20.586M-21.594,-11.278L-26.415,-11.278C-26.611,-11.278 -26.757,-11.458 -26.716,-11.649L-24.243,-23.263C-24.189,-23.514 -23.831,-23.515 -23.777,-23.263L-21.294,-11.649C-21.253,-11.458 -21.398,-11.278 -21.594,-11.278" style="fill:rgb(35,31,32);fill-rule:nonzero;"/>
            </g>
        </g>
    </g>
</svg>
